<?xml version="1.0" encoding="utf-8"?>
<svg version="1.1" id="Layer_1" xmlns="http://www.w3.org/2000/svg" xmlns:xlink="http://www.w3.org/1999/xlink" x="0px" y="0px"
	 viewBox="0 0 414 54" style="enable-background:new 0 0 414 54;" xml:space="preserve">
<style type="text/css">
	.st0{fill:#0091c9;}
</style>
<g>
	<g>
		<path class="st0" d="M22,32.6c-1.5,1.6-3.6,2.4-6.5,2.4H9.6v-16h5.9c3,0,4.9,0.7,6.5,2.4c1.4,1.5,2.2,3.5,2.2,5.6
			C24.2,29,23.4,31.1,22,32.6z M19.1,22.6c-0.8-0.6-2.1-0.9-3.8-0.9h-2.4v10.6h2.4c3.6,0,5.7-1.9,5.7-5.3
			C20.9,25.1,20.2,23.4,19.1,22.6z"/>
		<path class="st0" d="M26.9,34.9v-16H30v16H26.9z"/>
		<path class="st0" d="M45.8,34.7c-1.7,0.4-2.7,0.5-4,0.5c-5.3,0-9-3.4-9-8.3c0-2.4,0.9-4.5,2.6-6.1c1.6-1.5,3.5-2.1,6.3-2.1
			c1.2,0,2.3,0.1,3.3,0.4c0.8,0.2,1.3,0.4,2.4,0.8l-0.7,2.5c-0.6-0.2-1-0.4-1.3-0.5c-1.1-0.4-2.3-0.6-3.3-0.6
			c-3.6,0-6.1,2.2-6.1,5.4c0,3.3,2.7,5.8,6.3,5.8c0.7,0,1.1-0.1,2.1-0.3v-4.4h3.1v6.5C46.7,34.5,46.2,34.6,45.8,34.7z"/>
		<path class="st0" d="M51.1,34.9v-16h3.1v16H51.1z"/>
		<path class="st0" d="M64.7,21.5v13.4h-3.1V21.5h-4.8v-2.6h12.7v2.6H64.7z"/>
		<path class="st0" d="M79.7,34.9l-1.3-4H73l-1.3,4h-3.2l5.8-16h2.7l5.8,16H79.7z M75.7,22.6l-1.8,5.8h3.7L75.7,22.6z"/>
		<path class="st0" d="M85.1,34.9v-16h3.1v13.4h6.5v2.6H85.1z"/>
		<path class="st0" d="M116.1,34.9v-6.9h-8.2v6.9h-3.1v-16h3.1v6.4h8.2v-6.4h3.1v16H116.1z"/>
		<path class="st0" d="M132.5,34.9l-1.3-4h-5.4l-1.3,4h-3.2l5.8-16h2.7l5.8,16H132.5z M128.6,22.6l-1.8,5.8h3.7L128.6,22.6z"/>
		<path class="st0" d="M146,34.9l-3.7-6.4h-1.5v6.4h-3.1v-16h5.3c2.3,0,3.4,0.3,4.3,1.2c0.9,0.8,1.3,2,1.3,3.5c0,1.2-0.3,2.2-0.9,3
			c-0.6,0.8-1.2,1.1-2.5,1.5l4,6.9H146z M142.8,21.5h-2v4.4h2c1.9,0,2.8-0.7,2.8-2.3C145.6,22.1,144.8,21.5,142.8,21.5z"/>
		<path class="st0" d="M158.9,34.9h-6.5v-16h5.8c2.1,0,3.1,0.3,4,1.1c0.8,0.7,1.3,1.8,1.3,2.9c0,0.9-0.3,1.8-0.9,2.5
			c-0.7,0.8-1.4,1.1-2.6,1.2c2.4,0,4,1.6,4,4.1C163.8,33.4,162.1,34.9,158.9,34.9z M157.5,21.4h-2v4.1h1.8c1.7,0,2.6-0.7,2.6-2.1
			C160,22.1,159.1,21.4,157.5,21.4z M157.5,28.1h-2v4.4h2c0.9,0,1.4,0,1.8-0.3c0.7-0.3,1.1-1,1.1-1.9
			C160.5,28.9,159.4,28.1,157.5,28.1z"/>
		<path class="st0" d="M174.1,35.3c-5,0-8.5-3.4-8.5-8.3c0-4.9,3.4-8.3,8.5-8.3c5,0,8.5,3.3,8.5,8.3
			C182.6,31.8,179.1,35.3,174.1,35.3z M174.1,21.3c-3,0-5.3,2.4-5.3,5.7c0,3.2,2.2,5.7,5.3,5.7c3,0,5.2-2.4,5.2-5.7
			C179.3,23.7,177.1,21.3,174.1,21.3z"/>
		<path class="st0" d="M193.2,34.9l-3.7-6.4H188v6.4h-3.1v-16h5.3c2.3,0,3.4,0.3,4.3,1.2c0.9,0.8,1.3,2,1.3,3.5c0,1.2-0.3,2.2-0.9,3
			c-0.6,0.8-1.2,1.1-2.5,1.5l4,6.9H193.2z M190,21.5h-2v4.4h2c1.9,0,2.8-0.7,2.8-2.3C192.7,22.1,191.9,21.5,190,21.5z"/>
		<path class="st0" d="M210.4,21.5v4.1h5.6v2.6h-5.6v6.7h-3.1v-16h9.9v2.6H210.4z"/>
		<path class="st0" d="M227.4,35.3c-5,0-8.5-3.4-8.5-8.3c0-4.9,3.4-8.3,8.5-8.3c5,0,8.5,3.3,8.5,8.3
			C235.9,31.8,232.4,35.3,227.4,35.3z M227.4,21.3c-3,0-5.3,2.4-5.3,5.7c0,3.2,2.2,5.7,5.3,5.7c3,0,5.2-2.4,5.2-5.7
			C232.7,23.7,230.4,21.3,227.4,21.3z"/>
		<path class="st0" d="M249.8,34.1c-1.2,0.8-2.5,1.2-4.5,1.2c-2,0-3.3-0.3-4.5-1.2c-1.6-1.1-2.2-2.5-2.2-5.4v-9.7h3v9.9
			c0,2.4,1.2,3.6,3.8,3.6c2.3,0,3.6-1.3,3.6-3.6v-9.9h3.1v9.7C252,31.6,251.4,32.9,249.8,34.1z"/>
		<path class="st0" d="M266,35.1l-6.9-10.4c0-0.1-0.2-0.3-0.3-0.6c-0.1-0.2-0.2-0.3-0.2-0.3c-0.1-0.2-0.1-0.3-0.2-0.6v11.7h-2.9v-16
			h3.5l6.7,10.5c0,0,0.1,0.2,0.2,0.3c0.1,0.2,0.1,0.3,0.1,0.3l0.1,0.4l0.1,0.3V18.9h2.9v16.2H266z"/>
		<path class="st0" d="M285.6,32.6c-1.5,1.6-3.6,2.4-6.5,2.4h-5.9v-16h5.9c3,0,4.9,0.7,6.5,2.4c1.4,1.5,2.2,3.5,2.2,5.6
			C287.8,29,287,31.1,285.6,32.6z M282.7,22.6c-0.8-0.6-2.1-0.9-3.8-0.9h-2.4v10.6h2.4c3.6,0,5.7-1.9,5.7-5.3
			C284.5,25.1,283.8,23.4,282.7,22.6z"/>
		<path class="st0" d="M299.5,34.9l-1.3-4h-5.4l-1.3,4h-3.2l5.8-16h2.7l5.8,16H299.5z M295.5,22.6l-1.8,5.8h3.7L295.5,22.6z"/>
		<path class="st0" d="M309.6,21.5v13.4h-3.1V21.5h-4.8v-2.6h12.7v2.6H309.6z"/>
		<path class="st0" d="M317.5,34.9v-16h3.1v16H317.5z"/>
		<path class="st0" d="M332.2,35.3c-5,0-8.5-3.4-8.5-8.3c0-4.9,3.4-8.3,8.5-8.3c5,0,8.5,3.3,8.5,8.3
			C340.7,31.8,337.2,35.3,332.2,35.3z M332.2,21.3c-3,0-5.3,2.4-5.3,5.7c0,3.2,2.2,5.7,5.3,5.7c3,0,5.2-2.4,5.2-5.7
			C337.4,23.7,335.2,21.3,332.2,21.3z"/>
		<path class="st0" d="M353.9,35.1l-6.9-10.4c0-0.1-0.2-0.3-0.3-0.6c-0.1-0.2-0.2-0.3-0.2-0.3c-0.1-0.2-0.1-0.3-0.2-0.6v11.7h-2.9
			v-16h3.5l6.7,10.5c0,0,0.1,0.2,0.2,0.3c0.1,0.2,0.1,0.3,0.1,0.3l0.1,0.4l0.1,0.3V18.9h2.9v16.2H353.9z"/>
		<path class="st0" d="M368.5,9v36h35.9V9H368.5z M387.2,37.9L387.2,37.9l-11-10v-2l0,0l9.5,7.4V21.2c0-0.2,0-0.4,0-0.6l-1.2,0
			c0,1.2-0.2,2.2-0.8,2.9c-0.5,0.7-1.3,1-2.2,1c-0.3,0-0.5,0-0.8-0.1c-1.1-0.3-1.9-1-2.1-2c-0.2-1.2,0.2-1.9,0.5-2.3
			c0.9-1.1,2.7-1.1,2.9-1.1l0.1,0c0.1,0.5,0.2,1,0.3,1.5l-0.2,0c0,0,0,0,0,0l-0.2,0c0,0,0,0-0.1,0c0,0-0.1,0-0.1,0
			c-0.1,0-0.2,0-0.3,0c-1,0-1.6,0.6-1.6,1.3c0,0.1,0,0.3,0.1,0.4c0,0.1,0.1,0.2,0.1,0.3c0.2,0.3,0.6,0.6,1.2,0.6c0,0,0,0,0,0
			c0.3,0,0.8,0,1.2-0.5c0.1-0.1,0.2-0.3,0.3-0.5c0.1-0.2,0.1-0.4,0.2-0.6c0.1-0.6,0.1-1.3-0.2-2.5h0c-0.1-0.6-0.3-1.3-0.6-1.9
			l1.4-0.5c0.3,0.8,0.5,1.7,0.7,2.5l1.4,0c0-1.2,0-2.3,0.2-3.3l1.6-0.6c-0.2,1.4-0.3,3.1-0.3,5.3c0,0.1,0,0.2,0,0.3h5.2v1.5h-5.2
			V37.9z M396.7,27.9l-7.4,7.1l-0.6-2.9l8-6.3V27.9z"/>
	</g>
</g>
</svg>
